<?xml version="1.0" encoding="utf-8"?>
<svg viewBox="0 0 500 500" xmlns="http://www.w3.org/2000/svg">
  <circle style="stroke-opacity: 0; fill: rgb(94, 83, 82);" cx="249.658" cy="250" r="256" transform="matrix(0.961298, 0, 0, 0.966636, 10.687252, 8.682635)"/>
  <path style="stroke-opacity: 0; fill: rgb(171, 148, 138);" d="M 249.729 472.24 C 180.159 472.185 117.728 439.991 76.984 389.74 L 176.609 217.415 C 182.805 206.699 198 197.931 210.378 197.931 L 289.147 197.931 C 301.525 197.931 316.716 206.701 322.905 217.421 L 422.367 389.716 C 381.623 439.968 319.3 472.184 249.729 472.24 Z"/>
  <g transform="matrix(1, 0, 0, 1, -6.342041, -6.000002)">
    <path style="stroke-opacity: 0; fill: rgb(154, 109, 106);" d="M235.805,421.786c0,4.661-3.779,8.44-8.44,8.44c-4.661,0-8.44-3.779-8.44-8.44 c0-4.661,3.779-8.44,8.44-8.44C232.026,413.346,235.805,417.125,235.805,421.786"/>
    <circle style="stroke-opacity: 0; fill: rgb(154, 109, 106);" cx="186.852" cy="390.279" r="8.44"/>
  </g>
  <g transform="matrix(1, 0, 0, 1, -6.342041, -6.000002)">
    <path style="stroke-opacity: 0; fill: rgb(154, 109, 106);" d="M278.505,294.091v75.86c0,12.43,10.076,22.505,22.506,22.505c12.43,0,22.505-10.076,22.505-22.505 V216.267c-7.472-7.203-18.565-12.334-28.026-12.334h-78.769c-9.55,0-20.76,5.228-28.238,12.534v107.799 c0,12.43,10.076,22.505,22.505,22.505c12.43,0,22.506-10.076,22.506-22.505v-30.175c0-12.43,10.076-22.505,22.505-22.505 C268.43,271.585,278.505,281.662,278.505,294.091z"/>
  </g>
  <g transform="matrix(1, 0, 0, 1, 257.657953, -6.000002)"/>
  <g transform="matrix(1, 0, 0, 1, 257.657953, -6.000002)"/>
  <g transform="matrix(1, 0, 0, 1, 257.657953, -6.000002)"/>
  <g transform="matrix(1, 0, 0, 1, 257.657953, -6.000002)"/>
  <g transform="matrix(1, 0, 0, 1, 257.657953, -6.000002)"/>
  <g transform="matrix(1, 0, 0, 1, 257.657953, -6.000002)"/>
  <g transform="matrix(1, 0, 0, 1, 257.657953, -6.000002)"/>
  <g transform="matrix(1, 0, 0, 1, 257.657953, -6.000002)"/>
  <g transform="matrix(1, 0, 0, 1, 257.657953, -6.000002)"/>
  <g transform="matrix(1, 0, 0, 1, 257.657953, -6.000002)"/>
  <g transform="matrix(1, 0, 0, 1, 257.657953, -6.000002)"/>
  <g transform="matrix(1, 0, 0, 1, 257.657953, -6.000002)"/>
  <g transform="matrix(1, 0, 0, 1, 257.657953, -6.000002)"/>
  <g transform="matrix(1, 0, 0, 1, 257.657953, -6.000002)"/>
  <g transform="matrix(1, 0, 0, 1, 257.657953, -6.000002)"/>
</svg>